# xmcd
#
# Track frame offsets:
#	150
#	14142
#	31057
#	42697
#	64297
#	89957
#	108000
#	125390
#	146207
#	171425
#	200117
#
# Disc length: 2979 seconds
#
# Revision: 1
# Processed by: cddbd v1.5.2PL0 Copyright (c) Steve Scherf et al.
# Submitted via: audiograbber 1.83.01
#
DISCID=ae0ba10b
DTITLE=Various Artist - Blues Cruise - Volume 1 - Cruisin' The Me And My Catal
DTITLE=og
DYEAR=1999
DGENRE=Blues
TTITLE0=Monti Amundson - I See Trouble
TTITLE1=Joe "Guitar" Hughes - My Baby Told Me
TTITLE2=Drippin' Honey - Trick Baby
TTITLE3=Lee McBee And The Passions - Call Me
TTITLE4=George De Vore and The Roam - Be Mine Anyway
TTITLE5=Dermot Byrne - Fortune Teller
TTITLE6=The Countrypolitans - That Train
TTITLE7=Monti Amundson - Man On The Floor
TTITLE8=James Harman - Three Way Party
TTITLE9=Calvin Jackson and Mississippi Bound - Goin' Down South
TTITLE10=Mike Morgan and The Crawl - I Don't Want You Hangin' Around
EXTD=
EXTT0=
EXTT1=
EXTT2=
EXTT3=
EXTT4=
EXTT5=
EXTT6=
EXTT7=
EXTT8=
EXTT9=
EXTT10=
PLAYORDER=
